<svg xmlns="http://www.w3.org/2000/svg" xmlns:xlink="http://www.w3.org/1999/xlink" width="234.403519" height="212.807053" viewBox="0 0 234.404 212.807"><path d="M94.5312 0C92.3828 0 90.625 1.75781 90.625 3.90625L90.625 72.9883C90.625 75.1367 88.8672 76.8945 86.7188 76.8945L14.6484 76.8945C12.5 76.8945 10.7422 75.1367 10.7422 72.9883L10.7422 3.90625C10.7422 1.75781 8.98438 0 6.83594 0L3.90625 0C1.75781 0 0 1.75781 0 3.90625L0 83.7891C0 85.9375 1.75781 87.6953 3.90625 87.6953L97.5195 87.6953C99.668 87.6953 101.426 85.9375 101.426 83.7891L101.426 3.90625C101.426 1.75781 99.668 0 97.5195 0L94.5312 0L94.5312 0Z" fill="#2680F0" fill-opacity="1.000000" transform="matrix(1 0 0 1 51.0129 28.9621)"/><path d="M10.7227 36.6211C10.7227 38.7695 8.96485 40.5273 6.81641 40.5273L3.90625 40.5273C1.75781 40.5273 0 38.7695 0 36.6211L0 3.90625C0 1.75781 1.75781 0 3.90625 0L6.81641 0C8.96485 0 10.7227 1.75781 10.7227 3.90625L10.7227 36.6211L10.7227 36.6211Z" fill="#2680F0" fill-opacity="1.000000" transform="matrix(1 0 0 1 115.798 45.6418)"/><path d="M3.90625 0C1.75781 0 0 1.75781 0 3.90625L0 158.066C0 160.215 1.75781 161.973 3.90625 161.973L148.457 161.973C150.605 161.973 152.363 160.215 152.363 158.066L152.363 3.90625C152.363 1.75781 150.605 0 148.457 0L3.90625 0L3.90625 0ZM141.621 147.344C141.621 149.492 139.863 151.25 137.715 151.25L14.6484 151.25C12.5 151.25 10.7422 149.492 10.7422 147.344L10.7422 14.6484C10.7422 12.5 12.5 10.7422 14.6484 10.7422L137.734 10.7422C139.883 10.7422 141.641 12.5 141.641 14.6484L141.641 147.344L141.621 147.344L141.621 147.344Z" fill="#2680F0" fill-opacity="1.000000" transform="matrix(1 0 0 1 25.5441 25.5832)"/><path d="M94.5312 0C92.3828 0 90.625 1.75781 90.625 3.90625L90.625 72.9883C90.625 75.1367 88.8672 76.8945 86.7188 76.8945L14.6484 76.8945C12.5 76.8945 10.7422 75.1367 10.7422 72.9883L10.7422 3.90625C10.7422 1.75781 8.98438 0 6.83594 0L3.90625 0C1.75781 0 0 1.75781 0 3.90625L0 83.7891C0 85.9375 1.75781 87.6953 3.90625 87.6953L97.5195 87.6953C99.668 87.6953 101.426 85.9375 101.426 83.7891L101.426 3.90625C101.426 1.75781 99.668 0 97.5195 0L94.5312 0L94.5312 0Z" fill="#2680F0" fill-opacity="1.000000" transform="matrix(1 0 0 1 51.0129 28.9621)"/><path d="M10.7227 36.6211C10.7227 38.7695 8.96485 40.5273 6.81641 40.5273L3.90625 40.5273C1.75781 40.5273 0 38.7695 0 36.6211L0 3.90625C0 1.75781 1.75781 0 3.90625 0L6.81641 0C8.96485 0 10.7227 1.75781 10.7227 3.90625L10.7227 36.6211L10.7227 36.6211Z" fill="#2680F0" fill-opacity="1.000000" transform="matrix(1 0 0 1 115.798 45.6418)"/><path d="M3.90625 0C1.75781 0 0 1.75781 0 3.90625L0 158.066C0 160.215 1.75781 161.973 3.90625 161.973L148.457 161.973C150.605 161.973 152.363 160.215 152.363 158.066L152.363 3.90625C152.363 1.75781 150.605 0 148.457 0L3.90625 0L3.90625 0ZM141.621 147.344C141.621 149.492 139.863 151.25 137.715 151.25L14.6484 151.25C12.5 151.25 10.7422 149.492 10.7422 147.344L10.7422 14.6484C10.7422 12.5 12.5 10.7422 14.6484 10.7422L137.734 10.7422C139.883 10.7422 141.641 12.5 141.641 14.6484L141.641 147.344L141.621 147.344L141.621 147.344Z" fill="#2680F0" fill-opacity="1.000000" transform="matrix(1 0 0 1 25.5441 25.5832)"/><path d="M0 0L34 -32L66 -1L98 -32" fill="none" stroke="#2680F0" stroke-opacity="1.000000" stroke-width="6" stroke-linejoin="round" stroke-dasharray="0 0" transform="matrix(1 0 0 1 53.8702 161.004)"/><path d="M23 11.5C23 17.8513 17.8513 23 11.5 23C5.14873 23 0 17.8513 0 11.5C0 5.14873 5.14873 0 11.5 0C17.8513 0 23 5.14873 23 11.5L23 11.5Z" fill="#2680F0" fill-opacity="1.000000" transform="matrix(1 0 0 1 44.3141 150.504)"/><path d="M23 11.5C23 17.8513 17.8513 23 11.5 23C5.14873 23 0 17.8513 0 11.5C0 5.14873 5.14873 0 11.5 0C17.8513 0 23 5.14873 23 11.5L23 11.5Z" fill="none" stroke="#2680F0" stroke-opacity="1.000000" stroke-width="2" stroke-dasharray="0 0" transform="matrix(1 0 0 1 44.3141 150.504)"/><path d="M23 11.5C23 17.8513 17.8513 23 11.5 23C5.14873 23 0 17.8513 0 11.5C0 5.14873 5.14873 0 11.5 0C17.8513 0 23 5.14873 23 11.5L23 11.5Z" fill="#2680F0" fill-opacity="1.000000" transform="matrix(1 0 0 1 73.3702 120.504)"/><path d="M23 11.5C23 17.8513 17.8513 23 11.5 23C5.14873 23 0 17.8513 0 11.5C0 5.14873 5.14873 0 11.5 0C17.8513 0 23 5.14873 23 11.5L23 11.5Z" fill="none" stroke="#2680F0" stroke-opacity="1.000000" stroke-width="2" stroke-dasharray="0 0" transform="matrix(1 0 0 1 73.3702 120.504)"/><path d="M23 11.5C23 17.8513 17.8513 23 11.5 23C5.14873 23 0 17.8513 0 11.5C0 5.14873 5.14873 0 11.5 0C17.8513 0 23 5.14873 23 11.5L23 11.5Z" fill="#2680F0" fill-opacity="1.000000" transform="matrix(1 0 0 1 108.37 150.504)"/><path d="M23 11.5C23 17.8513 17.8513 23 11.5 23C5.14873 23 0 17.8513 0 11.5C0 5.14873 5.14873 0 11.5 0C17.8513 0 23 5.14873 23 11.5L23 11.5Z" fill="none" stroke="#2680F0" stroke-opacity="1.000000" stroke-width="2" stroke-dasharray="0 0" transform="matrix(1 0 0 1 108.37 150.504)"/><path d="M23 11.5C23 17.8513 17.8513 23 11.5 23C5.14873 23 0 17.8513 0 11.5C0 5.14873 5.14873 0 11.5 0C17.8513 0 23 5.14873 23 11.5L23 11.5Z" fill="#2680F0" fill-opacity="1.000000" transform="matrix(1 0 0 1 139.37 120.504)"/><path d="M23 11.5C23 17.8513 17.8513 23 11.5 23C5.14873 23 0 17.8513 0 11.5C0 5.14873 5.14873 0 11.5 0C17.8513 0 23 5.14873 23 11.5L23 11.5Z" fill="none" stroke="#2680F0" stroke-opacity="1.000000" stroke-width="2" stroke-dasharray="0 0" transform="matrix(1 0 0 1 139.37 120.504)"/></svg>