<svg xmlns="http://www.w3.org/2000/svg" xmlns:xlink="http://www.w3.org/1999/xlink" width="284.757050" height="206.652802" viewBox="0 0 284.757 206.653"><path d="M0 0L63 -65L126 0L191.667 -64" fill="none" stroke="#2680F0" stroke-opacity="1.000000" stroke-width="6" stroke-linejoin="round" stroke-dasharray="0 0" transform="matrix(1 0 0 1 46.5753 113.732)"/><path d="M23 11.5C23 17.8513 17.8513 23 11.5 23C5.14873 23 0 17.8513 0 11.5C0 5.14873 5.14873 0 11.5 0C17.8513 0 23 5.14873 23 11.5L23 11.5Z" fill="#2680F0" fill-opacity="1.000000" transform="matrix(1 0 0 1 99.3294 39.2317)"/><path d="M23 11.5C23 17.8513 17.8513 23 11.5 23C5.14873 23 0 17.8513 0 11.5C0 5.14873 5.14873 0 11.5 0C17.8513 0 23 5.14873 23 11.5L23 11.5Z" fill="none" stroke="#2680F0" stroke-opacity="1.000000" stroke-width="2" stroke-dasharray="0 0" transform="matrix(1 0 0 1 99.3294 39.2317)"/><path d="M23 11.5C23 17.8513 17.8513 23 11.5 23C5.14873 23 0 17.8513 0 11.5C0 5.14873 5.14873 0 11.5 0C17.8513 0 23 5.14873 23 11.5L23 11.5Z" fill="#2680F0" fill-opacity="1.000000" transform="matrix(1 0 0 1 36.742 102.232)"/><path d="M23 11.5C23 17.8513 17.8513 23 11.5 23C5.14873 23 0 17.8513 0 11.5C0 5.14873 5.14873 0 11.5 0C17.8513 0 23 5.14873 23 11.5L23 11.5Z" fill="none" stroke="#2680F0" stroke-opacity="1.000000" stroke-width="2" stroke-dasharray="0 0" transform="matrix(1 0 0 1 36.742 102.232)"/><path d="M23 11.5C23 17.8513 17.8513 23 11.5 23C5.14873 23 0 17.8513 0 11.5C0 5.14873 5.14873 0 11.5 0C17.8513 0 23 5.14873 23 11.5L23 11.5Z" fill="#2680F0" fill-opacity="1.000000" transform="matrix(1 0 0 1 160.742 102.232)"/><path d="M23 11.5C23 17.8513 17.8513 23 11.5 23C5.14873 23 0 17.8513 0 11.5C0 5.14873 5.14873 0 11.5 0C17.8513 0 23 5.14873 23 11.5L23 11.5Z" fill="none" stroke="#2680F0" stroke-opacity="1.000000" stroke-width="2" stroke-dasharray="0 0" transform="matrix(1 0 0 1 160.742 102.232)"/><path d="M23 11.5C23 17.8513 17.8513 23 11.5 23C5.14873 23 0 17.8513 0 11.5C0 5.14873 5.14873 0 11.5 0C17.8513 0 23 5.14873 23 11.5L23 11.5Z" fill="#2680F0" fill-opacity="1.000000" transform="matrix(1 0 0 1 228.075 38.2317)"/><path d="M23 11.5C23 17.8513 17.8513 23 11.5 23C5.14873 23 0 17.8513 0 11.5C0 5.14873 5.14873 0 11.5 0C17.8513 0 23 5.14873 23 11.5L23 11.5Z" fill="none" stroke="#2680F0" stroke-opacity="1.000000" stroke-width="2" stroke-dasharray="0 0" transform="matrix(1 0 0 1 228.075 38.2317)"/><path d="M23 11.5C23 17.8513 17.8513 23 11.5 23C5.14873 23 0 17.8513 0 11.5C0 5.14873 5.14873 0 11.5 0C17.8513 0 23 5.14873 23 11.5L23 11.5Z" fill="#00FF00" fill-opacity="1.000000" transform="matrix(1 0 0 1 36.742 146.232)"/><path d="M23 11.5C23 17.8513 17.8513 23 11.5 23C5.14873 23 0 17.8513 0 11.5C0 5.14873 5.14873 0 11.5 0C17.8513 0 23 5.14873 23 11.5L23 11.5Z" fill="none" stroke="#00FF00" stroke-opacity="1.000000" stroke-width="2" stroke-dasharray="0 0" transform="matrix(1 0 0 1 36.742 146.232)"/><path d="M23 11.5C23 17.8513 17.8513 23 11.5 23C5.14873 23 0 17.8513 0 11.5C0 5.14873 5.14873 0 11.5 0C17.8513 0 23 5.14873 23 11.5L23 11.5Z" fill="#00FF00" fill-opacity="1.000000" transform="matrix(1 0 0 1 99.3294 84.2317)"/><path d="M23 11.5C23 17.8513 17.8513 23 11.5 23C5.14873 23 0 17.8513 0 11.5C0 5.14873 5.14873 0 11.5 0C17.8513 0 23 5.14873 23 11.5L23 11.5Z" fill="none" stroke="#00FF00" stroke-opacity="1.000000" stroke-width="2" stroke-dasharray="0 0" transform="matrix(1 0 0 1 99.3294 84.2317)"/><path d="M23 11.5C23 17.8513 17.8513 23 11.5 23C5.14873 23 0 17.8513 0 11.5C0 5.14873 5.14873 0 11.5 0C17.8513 0 23 5.14873 23 11.5L23 11.5Z" fill="#00FF00" fill-opacity="1.000000" transform="matrix(1 0 0 1 228.075 81.2317)"/><path d="M23 11.5C23 17.8513 17.8513 23 11.5 23C5.14873 23 0 17.8513 0 11.5C0 5.14873 5.14873 0 11.5 0C17.8513 0 23 5.14873 23 11.5L23 11.5Z" fill="none" stroke="#00FF00" stroke-opacity="1.000000" stroke-width="2" stroke-dasharray="0 0" transform="matrix(1 0 0 1 228.075 81.2317)"/><path d="M23 11.5C23 17.8513 17.8513 23 11.5 23C5.14873 23 0 17.8513 0 11.5C0 5.14873 5.14873 0 11.5 0C17.8513 0 23 5.14873 23 11.5L23 11.5Z" fill="#00FF00" fill-opacity="1.000000" transform="matrix(1 0 0 1 160.742 145.421)"/><path d="M23 11.5C23 17.8513 17.8513 23 11.5 23C5.14873 23 0 17.8513 0 11.5C0 5.14873 5.14873 0 11.5 0C17.8513 0 23 5.14873 23 11.5L23 11.5Z" fill="none" stroke="#00FF00" stroke-opacity="1.000000" stroke-width="2" stroke-dasharray="0 0" transform="matrix(1 0 0 1 160.742 145.421)"/><path d="M0 0L63 -65L126 0L191.667 -64" fill="none" stroke="#00FF00" stroke-opacity="1.000000" stroke-width="6" stroke-dasharray="0 0" transform="matrix(1 0 0 1 46.5753 157.984)"/></svg>