<svg xmlns="http://www.w3.org/2000/svg" xmlns:xlink="http://www.w3.org/1999/xlink" width="234.736862" height="213.473724" viewBox="0 0 234.737 213.474"><path d="M102.676 0L33.4375 0L32.4414 1.79688L0 60.293L102.676 60.293L136.113 5.96046e-06L102.676 0L102.676 0Z" fill="#1296DB" fill-opacity="1.000000" transform="matrix(1 0 0 1 56.3853 103.924)"/><path d="M40 45.2148L40.0195 45.1758L115.762 45.1758L115.762 17.4805L45.5273 17.4805L45.5273 0L0 0L0 117.285L0.0390619 117.285L0.0585943 117.246L40 45.2148L40 45.2148Z" fill="#1296DB" fill-opacity="1.000000" transform="matrix(1 0 0 1 43.2994 46.9322)"/><path d="M102.676 0L33.4375 0L32.4414 1.79688L0 60.293L102.676 60.293L136.113 5.96046e-06L102.676 0L102.676 0Z" fill="#1296DB" fill-opacity="1.000000" transform="matrix(1 0 0 1 56.3853 103.924)"/><path d="M40 45.2148L40.0195 45.1758L115.762 45.1758L115.762 17.4805L45.5273 17.4805L45.5273 0L0 0L0 117.285L0.0390619 117.285L0.0585943 117.246L40 45.2148L40 45.2148Z" fill="#1296DB" fill-opacity="1.000000" transform="matrix(1 0 0 1 43.2994 46.9322)"/><path d="M10.5117 54L14.9766 54L14.9766 40.3242L25.5352 18.8203L20.9297 18.8203L16.3711 28.7578C15.3164 31.3477 14.1094 33.7969 12.8672 36.4336L12.668 36.4336C11.4258 33.7969 10.3711 31.3477 9.21094 28.7578L4.69922 18.8203L-0.046875 18.8203L10.5117 40.3242L10.5117 54ZM33.9321 39.6914L35.6665 34.3242C36.9087 30.3398 38.0688 26.543 39.1704 22.418L39.3579 22.418C40.5063 26.4961 41.6196 30.3398 42.9087 34.3242L44.5962 39.6914L33.9321 39.6914ZM49.061 54L53.7602 54L41.8071 18.8203L36.8618 18.8203L24.9087 54L29.4204 54L32.8306 43.2422L45.6977 43.2422L49.061 54ZM58.7088 54L62.7401 54L62.7401 34.5117C62.7401 31.4883 62.4002 27.2109 62.2127 24.1406L62.4002 24.1406L65.1893 32.1562L71.8572 50.4492L74.8338 50.4492L81.5018 32.1562L84.2908 24.1406L84.4783 24.1406C84.244 27.2109 83.9041 31.4883 83.9041 34.5117L83.9041 54L88.076 54L88.076 18.8203L82.7088 18.8203L75.9822 37.6289C75.1736 40.0781 74.4002 42.5273 73.5799 44.9766L73.3455 44.9766C72.4783 42.5273 71.6697 40.0781 70.8494 37.6289L64.076 18.8203L58.7088 18.8203L58.7088 54ZM97.6849 54L117.501 54L117.501 50.2031L102.15 50.2031L102.15 18.8203L97.6849 18.8203L97.6849 54Z" fill="#D64A43" fill-opacity="1.000000" transform="matrix(1 0 0 1 76.9501 121.737)"/></svg>