<svg xmlns="http://www.w3.org/2000/svg" xmlns:xlink="http://www.w3.org/1999/xlink" width="234.736862" height="213.473724" viewBox="0 0 234.737 213.474"><path d="M94.5312 0C92.3828 0 90.625 1.75781 90.625 3.90625L90.625 72.9883C90.625 75.1367 88.8672 76.8945 86.7188 76.8945L14.6484 76.8945C12.5 76.8945 10.7422 75.1367 10.7422 72.9883L10.7422 3.90625C10.7422 1.75781 8.98438 0 6.83594 0L3.90625 0C1.75781 0 0 1.75781 0 3.90625L0 83.7891C0 85.9375 1.75781 87.6953 3.90625 87.6953L97.5195 87.6953C99.668 87.6953 101.426 85.9375 101.426 83.7891L101.426 3.90625C101.426 1.75781 99.668 0 97.5195 0L94.5312 0L94.5312 0Z" fill="#2680F0" fill-opacity="1.000000" transform="matrix(1 0 0 1 51.3462 29.2954)"/><path d="M10.7227 36.6211C10.7227 38.7695 8.96485 40.5273 6.81641 40.5273L3.90625 40.5273C1.75781 40.5273 0 38.7695 0 36.6211L0 3.90625C0 1.75781 1.75781 0 3.90625 0L6.81641 0C8.96485 0 10.7227 1.75781 10.7227 3.90625L10.7227 36.6211L10.7227 36.6211Z" fill="#2680F0" fill-opacity="1.000000" transform="matrix(1 0 0 1 116.131 45.9751)"/><path d="M3.90625 0C1.75781 0 0 1.75781 0 3.90625L0 158.066C0 160.215 1.75781 161.973 3.90625 161.973L148.457 161.973C150.605 161.973 152.363 160.215 152.363 158.066L152.363 3.90625C152.363 1.75781 150.605 0 148.457 0L3.90625 0L3.90625 0ZM141.621 147.344C141.621 149.492 139.863 151.25 137.715 151.25L14.6484 151.25C12.5 151.25 10.7422 149.492 10.7422 147.344L10.7422 14.6484C10.7422 12.5 12.5 10.7422 14.6484 10.7422L137.734 10.7422C139.883 10.7422 141.641 12.5 141.641 14.6484L141.641 147.344L141.621 147.344L141.621 147.344Z" fill="#2680F0" fill-opacity="1.000000" transform="matrix(1 0 0 1 25.8775 25.9165)"/><path d="M94.5312 0C92.3828 0 90.625 1.75781 90.625 3.90625L90.625 72.9883C90.625 75.1367 88.8672 76.8945 86.7188 76.8945L14.6484 76.8945C12.5 76.8945 10.7422 75.1367 10.7422 72.9883L10.7422 3.90625C10.7422 1.75781 8.98438 0 6.83594 0L3.90625 0C1.75781 0 0 1.75781 0 3.90625L0 83.7891C0 85.9375 1.75781 87.6953 3.90625 87.6953L97.5195 87.6953C99.668 87.6953 101.426 85.9375 101.426 83.7891L101.426 3.90625C101.426 1.75781 99.668 0 97.5195 0L94.5312 0L94.5312 0Z" fill="#2680F0" fill-opacity="1.000000" transform="matrix(1 0 0 1 51.3462 29.2954)"/><path d="M10.7227 36.6211C10.7227 38.7695 8.96485 40.5273 6.81641 40.5273L3.90625 40.5273C1.75781 40.5273 0 38.7695 0 36.6211L0 3.90625C0 1.75781 1.75781 0 3.90625 0L6.81641 0C8.96485 0 10.7227 1.75781 10.7227 3.90625L10.7227 36.6211L10.7227 36.6211Z" fill="#2680F0" fill-opacity="1.000000" transform="matrix(1 0 0 1 116.131 45.9751)"/><path d="M3.90625 0C1.75781 0 0 1.75781 0 3.90625L0 158.066C0 160.215 1.75781 161.973 3.90625 161.973L148.457 161.973C150.605 161.973 152.363 160.215 152.363 158.066L152.363 3.90625C152.363 1.75781 150.605 0 148.457 0L3.90625 0L3.90625 0ZM141.621 147.344C141.621 149.492 139.863 151.25 137.715 151.25L14.6484 151.25C12.5 151.25 10.7422 149.492 10.7422 147.344L10.7422 14.6484C10.7422 12.5 12.5 10.7422 14.6484 10.7422L137.734 10.7422C139.883 10.7422 141.641 12.5 141.641 14.6484L141.641 147.344L141.621 147.344L141.621 147.344Z" fill="#2680F0" fill-opacity="1.000000" transform="matrix(1 0 0 1 25.8775 25.9165)"/><path d="M11.3789 54.6211C18.2344 54.6211 21.0234 49.7227 21.0234 43.6758L21.0234 18.8203L16.6055 18.8203L16.6055 43.2422C16.6055 48.5742 14.7305 50.7305 10.9453 50.7305C8.40234 50.7305 6.43359 49.582 4.85156 46.8047L1.67578 49.0547C3.73828 52.6992 6.91406 54.6211 11.3789 54.6211ZM36.9546 54.6211C43.107 54.6211 46.4585 51.1172 46.4585 46.8984C46.4585 41.9531 42.2867 40.418 38.5015 38.9766C35.5718 37.875 32.7359 36.9609 32.7359 34.4648C32.7359 32.4492 34.2242 30.7148 37.4937 30.7148C39.8374 30.7148 41.6656 31.6758 43.4937 33.0234L45.6031 30.1875C43.5406 28.6055 40.7046 27.2695 37.4937 27.2695C31.8218 27.2695 28.5171 30.5273 28.5171 34.6523C28.5171 39.0703 32.6421 40.8516 36.2867 42.1875C39.1695 43.3008 42.2398 44.4961 42.2398 47.1328C42.2398 49.3945 40.564 51.2109 37.107 51.2109C33.9898 51.2109 31.6343 49.9688 29.3726 48.1406L27.2163 51.0234C29.7124 53.0859 33.2632 54.6211 36.9546 54.6211ZM62.7351 54.6211C69.1218 54.6211 74.8288 49.6289 74.8288 40.9922C74.8288 32.3086 69.1218 27.2695 62.7351 27.2695C56.3484 27.2695 50.6413 32.3086 50.6413 40.9922C50.6413 49.6289 56.3484 54.6211 62.7351 54.6211ZM62.7351 50.9766C58.2234 50.9766 55.1999 46.9922 55.1999 40.9922C55.1999 34.9922 58.2234 30.9141 62.7351 30.9141C67.2468 30.9141 70.3171 34.9922 70.3171 40.9922C70.3171 46.9922 67.2468 50.9766 62.7351 50.9766ZM81.6981 54L86.0692 54L86.0692 35.0859C88.7059 32.4492 90.5224 31.1016 93.2177 31.1016C96.6747 31.1016 98.163 33.1641 98.163 38.0625L98.163 54L102.522 54L102.522 37.4883C102.522 30.8203 100.038 27.2695 94.5653 27.2695C91.0028 27.2695 88.3192 29.2266 85.8231 31.6758L85.6825 31.6758L85.2958 27.9375L81.6981 27.9375L81.6981 54Z" fill="#D64A43" fill-opacity="1.000000" transform="matrix(1 0 0 1 76.9501 134.737)"/></svg>